<svg xmlns="http://www.w3.org/2000/svg" width="{{ include.size | default: 24 }}" height="{{ include.size | default: 24 }}" viewBox="0 0 480 480" focusable="false" aria-hidden="true">
  <defs>
    <linearGradient id="a" x1="50%" x2="50%" y1="0" y2="78%">
      <stop offset="0%" stop-color="#fb0"/>
      <stop offset="100%" stop-color="#f80"/>
    </linearGradient>
    <linearGradient id="b" x1="50%" x2="50%" y1="0" y2="100%">
      <stop offset="0%" stop-color="#ffc"/>
      <stop offset="100%" stop-color="#ff6"/>
    </linearGradient>
  </defs>
  <path fill="url(#a)" d="M427 354c31-37 53-84 53-135C480 98 371 0 240 0 108 0 0 98 0 219s108 219 240 219c28 0 57-5 84-14 3-1 7 0 9 2 20 27 51 46 85 54l5-2v-6a93 93 0 0 1 4-118z"/>
  <path fill="url(#b)" d="M352 194l-61 46 22 72c1 3 0 6-3 8h-8l-63-43-63 43h-8c-3-2-4-5-3-8l22-72-61-46c-3-2-4-5-3-8 1-2 4-4 7-4l77-2 25-71c1-3 4-5 7-5s6 2 7 5l25 71 77 2c3 0 6 2 7 4 1 3 0 6-3 8z"/>
</svg>
